<svg width="121" height="58" viewBox="0 0 121 58" fill="none" xmlns="http://www.w3.org/2000/svg">
<rect width="120" height="44" rx="10" fill="#3CFF00"/>
<path d="M25.56 16.64H27.256L31.672 28H29.784L28.584 24.912H24.2L23.016 28H21.112L25.56 16.64ZM28.232 23.584L26.408 18.608L24.52 23.584H28.232ZM37.8449 28.16C37.2049 28.16 36.6235 28.0107 36.1009 27.712C35.5889 27.4027 35.1835 26.992 34.8849 26.48V28H33.3329V16.32H35.0929V21.216C35.4235 20.6827 35.8342 20.2613 36.3249 19.952C36.8262 19.6427 37.4129 19.488 38.0849 19.488C38.6395 19.488 39.1462 19.6053 39.6049 19.84C40.0635 20.0747 40.4529 20.3947 40.7729 20.8C41.1035 21.2053 41.3542 21.6693 41.5249 22.192C41.7062 22.7147 41.7969 23.2693 41.7969 23.856C41.7969 24.4427 41.6955 24.9973 41.4929 25.52C41.3009 26.0427 41.0235 26.5013 40.6609 26.896C40.2982 27.2907 39.8769 27.6 39.3969 27.824C38.9275 28.048 38.4102 28.16 37.8449 28.16ZM37.3809 26.656C37.7649 26.656 38.1169 26.5813 38.4369 26.432C38.7569 26.272 39.0342 26.064 39.2689 25.808C39.5035 25.552 39.6795 25.2533 39.7969 24.912C39.9249 24.5707 39.9889 24.2187 39.9889 23.856C39.9889 23.3547 39.8822 22.8853 39.6689 22.448C39.4662 22.0107 39.1782 21.6587 38.8049 21.392C38.4315 21.1253 37.9995 20.992 37.5089 20.992C37.1569 20.992 36.8262 21.0773 36.5169 21.248C36.2075 21.408 35.9302 21.6267 35.6849 21.904C35.4502 22.1707 35.2529 22.4693 35.0929 22.8V25.008C35.1569 25.2533 35.2689 25.4773 35.4289 25.68C35.5889 25.872 35.7755 26.0427 35.9889 26.192C36.2022 26.3307 36.4315 26.4427 36.6769 26.528C36.9222 26.6133 37.1569 26.656 37.3809 26.656ZM47.6197 28.16C46.9584 28.16 46.3664 28.048 45.8437 27.824C45.3211 27.5893 44.8677 27.2693 44.4837 26.864C44.1104 26.4587 43.8224 26 43.6197 25.488C43.4171 24.9653 43.3157 24.4107 43.3157 23.824C43.3157 23.2373 43.4171 22.6827 43.6197 22.16C43.8224 21.6373 44.1104 21.1787 44.4837 20.784C44.8677 20.3787 45.3211 20.064 45.8437 19.84C46.3771 19.6053 46.9691 19.488 47.6197 19.488C48.2704 19.488 48.8571 19.6053 49.3797 19.84C49.9131 20.064 50.3664 20.3787 50.7397 20.784C51.1237 21.1787 51.4171 21.6373 51.6197 22.16C51.8224 22.6827 51.9237 23.2373 51.9237 23.824C51.9237 24.4107 51.8224 24.9653 51.6197 25.488C51.4171 26 51.1237 26.4587 50.7397 26.864C50.3664 27.2693 49.9131 27.5893 49.3797 27.824C48.8571 28.048 48.2704 28.16 47.6197 28.16ZM45.1237 23.84C45.1237 24.3733 45.2357 24.8533 45.4597 25.28C45.6837 25.7067 45.9824 26.0427 46.3557 26.288C46.7291 26.5333 47.1504 26.656 47.6197 26.656C48.0784 26.656 48.4944 26.5333 48.8677 26.288C49.2517 26.032 49.5557 25.6907 49.7797 25.264C50.0037 24.8267 50.1157 24.3467 50.1157 23.824C50.1157 23.2907 50.0037 22.8107 49.7797 22.384C49.5557 21.9573 49.2517 21.6213 48.8677 21.376C48.4944 21.12 48.0784 20.992 47.6197 20.992C47.1504 20.992 46.7291 21.12 46.3557 21.376C45.9824 21.632 45.6837 21.9733 45.4597 22.4C45.2357 22.816 45.1237 23.296 45.1237 23.84ZM53.8848 24.752V19.632H55.6448V24.4C55.6448 25.1467 55.7781 25.712 56.0448 26.096C56.3221 26.4693 56.7221 26.656 57.2448 26.656C57.5754 26.656 57.8954 26.5867 58.2048 26.448C58.5248 26.3093 58.8128 26.1067 59.0688 25.84C59.3354 25.5627 59.5488 25.232 59.7088 24.848V19.632H61.4688V26.016C61.4688 26.2187 61.5061 26.3627 61.5808 26.448C61.6554 26.5333 61.7781 26.5813 61.9488 26.592V28C61.7674 28.032 61.6181 28.0533 61.5008 28.064C61.3834 28.0747 61.2714 28.08 61.1648 28.08C60.8448 28.08 60.5781 27.9947 60.3648 27.824C60.1514 27.6427 60.0288 27.4133 59.9968 27.136L59.9648 26.304C59.5914 26.912 59.1061 27.376 58.5088 27.696C57.9114 28.0053 57.2554 28.16 56.5408 28.16C55.6661 28.16 55.0048 27.872 54.5568 27.296C54.1088 26.72 53.8848 25.872 53.8848 24.752ZM68.8351 27.568C68.6858 27.6427 68.4991 27.7227 68.2751 27.808C68.0511 27.8933 67.7951 27.968 67.5071 28.032C67.2298 28.096 66.9418 28.128 66.6431 28.128C66.2805 28.128 65.9445 28.064 65.6351 27.936C65.3258 27.808 65.0751 27.6053 64.8831 27.328C64.7018 27.04 64.6111 26.672 64.6111 26.224V20.992H63.5071V19.632H64.6111V16.88H66.3711V19.632H68.1951V20.992H66.3711V25.664C66.3925 25.952 66.4831 26.1653 66.6431 26.304C66.8138 26.4427 67.0218 26.512 67.2671 26.512C67.5125 26.512 67.7471 26.4693 67.9711 26.384C68.1951 26.2987 68.3605 26.2293 68.4671 26.176L68.8351 27.568ZM87.7673 28H86.0073V23.312C86.0073 22.5333 85.8793 21.9627 85.6233 21.6C85.3673 21.2373 84.9939 21.056 84.5033 21.056C84.0126 21.056 83.5539 21.2427 83.1273 21.616C82.7113 21.9787 82.4179 22.4533 82.2473 23.04V28H80.4873V23.312C80.4873 22.5333 80.3593 21.9627 80.1033 21.6C79.8473 21.2373 79.4793 21.056 78.9993 21.056C78.5086 21.056 78.0499 21.2373 77.6233 21.6C77.2073 21.9627 76.9086 22.4373 76.7273 23.024V28H74.9673V19.632H76.5673V21.312C76.8979 20.7253 77.3299 20.2773 77.8633 19.968C78.4073 19.648 79.0259 19.488 79.7193 19.488C80.4126 19.488 80.9566 19.6693 81.3513 20.032C81.7566 20.3947 82.0073 20.848 82.1033 21.392C82.4659 20.7733 82.9086 20.304 83.4313 19.984C83.9646 19.6533 84.5726 19.488 85.2553 19.488C85.7459 19.488 86.1566 19.5787 86.4873 19.76C86.8179 19.9413 87.0739 20.192 87.2553 20.512C87.4366 20.8213 87.5646 21.184 87.6393 21.6C87.7246 22.0053 87.7673 22.4373 87.7673 22.896V28ZM94.0674 28.16C93.4167 28.16 92.8247 28.048 92.2914 27.824C91.7687 27.5893 91.3154 27.2747 90.9314 26.88C90.5474 26.4747 90.2487 26.016 90.0354 25.504C89.8327 24.9813 89.7314 24.4267 89.7314 23.84C89.7314 23.0507 89.9127 22.3307 90.2754 21.68C90.638 21.0187 91.1447 20.4907 91.7954 20.096C92.446 19.6907 93.2087 19.488 94.0834 19.488C94.958 19.488 95.71 19.6907 96.3394 20.096C96.9794 20.4907 97.4754 21.0133 97.8274 21.664C98.1794 22.3147 98.3554 23.0133 98.3554 23.76C98.3554 23.888 98.35 24.0107 98.3394 24.128C98.3287 24.2347 98.318 24.3253 98.3074 24.4H91.6034C91.6354 24.8907 91.7687 25.3227 92.0034 25.696C92.2487 26.0587 92.558 26.3467 92.9314 26.56C93.3047 26.7627 93.7047 26.864 94.1314 26.864C94.6007 26.864 95.0434 26.7467 95.4594 26.512C95.886 26.2773 96.174 25.968 96.3234 25.584L97.8274 26.016C97.646 26.4213 97.3687 26.7893 96.9954 27.12C96.6327 27.44 96.2007 27.696 95.6994 27.888C95.198 28.0693 94.654 28.16 94.0674 28.16ZM91.5554 23.232H96.6114C96.5794 22.752 96.4407 22.3307 96.1954 21.968C95.9607 21.5947 95.6567 21.3067 95.2834 21.104C94.9207 20.8907 94.5154 20.784 94.0674 20.784C93.63 20.784 93.2247 20.8907 92.8514 21.104C92.4887 21.3067 92.19 21.5947 91.9554 21.968C91.7207 22.3307 91.5874 22.752 91.5554 23.232Z" fill="black"/>
<path d="M119.964 29.4697L120.036 57.1824L96 43.3882L119.964 29.4697Z" fill="#3CFF00"/>
</svg>
