<svg width="75" height="80" viewBox="0 0 75 80" fill="none" xmlns="http://www.w3.org/2000/svg">
<path d="M44.5126 42.2823L43.7203 41.9125L44.5126 42.2823ZM42.446 26.7021L42.2466 25.8508L42.446 26.7021ZM67.481 57.5732C67.1101 57.8824 66.5588 57.8324 66.2496 57.4615L61.2108 51.4177C60.9016 51.0468 60.9516 50.4955 61.3225 50.1863C61.6934 49.8771 62.2447 49.9271 62.5539 50.298L67.0328 55.6702L72.4051 51.1913C72.776 50.8821 73.3273 50.9321 73.6365 51.303C73.9457 51.6739 73.8957 52.2252 73.5248 52.5344L67.481 57.5732ZM1.02484 22.4211C9.25501 22.6462 21.9228 23.7497 31.7086 26.6491C36.5835 28.0934 40.8681 30.0182 43.504 32.6009C44.8353 33.9053 45.7755 35.4065 46.1266 37.1219C46.4788 38.8428 46.22 40.6911 45.3049 42.652L43.7203 41.9125C44.5069 40.2271 44.6772 38.7613 44.4135 37.4725C44.1486 36.1783 43.4277 34.9742 42.2802 33.8499C39.9588 31.5753 36.0155 29.7489 31.2119 28.3257C21.6408 25.49 9.14931 24.3926 0.977036 24.1691L1.02484 22.4211ZM45.3049 42.652C44.3637 44.6686 43.1313 46.0913 41.715 46.9725C40.2954 47.8557 38.7411 48.163 37.2185 48.0265C34.2027 47.7563 31.3326 45.7573 29.6594 43.0792C27.9708 40.3764 27.4337 36.8667 29.2828 33.5851C31.1146 30.3342 35.1778 27.5063 42.2466 25.8508L42.6453 27.5534C35.812 29.1537 32.2985 31.7951 30.8062 34.4435C29.3313 37.061 29.7227 39.8804 31.1424 42.1527C32.5775 44.4497 34.9954 46.0717 37.3745 46.2849C38.5493 46.3902 39.7192 46.1547 40.7913 45.4877C41.8667 44.8187 42.8936 43.6839 43.7203 41.9125L45.3049 42.652ZM42.2466 25.8508C47.9556 24.5139 52.5453 24.9786 56.1862 26.713C59.8229 28.4454 62.4139 31.3972 64.2163 34.8555C67.8025 41.7363 68.3542 50.7801 67.7919 56.9806L66.0504 56.8227C66.5978 50.7861 66.0336 42.1257 62.6657 35.6636C60.991 32.4505 58.6453 29.8213 55.4342 28.2917C52.2273 26.764 48.058 26.2858 42.6453 27.5534L42.2466 25.8508Z" fill="#FFF8F8" fill-opacity="0.5"/>
<circle cx="1.37962" cy="1.37962" r="1.37962" transform="matrix(0.882029 -0.471195 -0.471195 -0.882029 42.8188 55.6977)" fill="#D9D9D9"/>
<circle cx="1.37962" cy="1.37962" r="0.829692" transform="matrix(0.882029 -0.471195 -0.471195 -0.882029 42.8188 55.6977)" stroke="#FFF8F8" stroke-opacity="0.5" stroke-width="1.09985"/>
<circle cx="0.634194" cy="0.634194" r="0.634194" transform="matrix(0.226854 0.973929 0.973929 -0.226854 65.1626 59.7202)" fill="#D9D9D9"/>
<ellipse cx="3.89208" cy="3.89208" rx="3.89208" ry="3.89208" transform="matrix(0.944321 -0.329026 -0.329026 -0.944321 24.0493 20.5679)" fill="#D9D9D9"/>
<path d="M29.336 14.6043C28.7795 13.0071 27.0336 12.1635 25.4365 12.72C23.8393 13.2765 22.9957 15.0224 23.5522 16.6195C24.1087 18.2166 25.8546 19.0603 27.4517 18.5038C29.0488 17.9473 29.8925 16.2014 29.336 14.6043Z" stroke="#FFF8F8" stroke-opacity="0.5" stroke-width="1.65938"/>
</svg>
