<svg width="53" height="55" viewBox="0 0 53 55" fill="none" xmlns="http://www.w3.org/2000/svg">
<path d="M30.1807 29.453L29.3884 29.0832L30.1807 29.453ZM28.7701 18.8188L28.5708 17.9675L28.7701 18.8188ZM46.0355 40.1029C45.6646 40.4121 45.1133 40.3621 44.8041 39.9913L39.7653 33.9475C39.4561 33.5766 39.5061 33.0253 39.877 32.7161C40.2479 32.4069 40.7992 32.4569 41.1084 32.8277L45.5873 38.2L50.9596 33.7211C51.3304 33.4119 51.8818 33.4619 52.191 33.8328C52.5002 34.2036 52.4502 34.755 52.0793 35.0642L46.0355 40.1029ZM0.505812 15.6194C6.13249 15.7732 14.8068 16.5274 21.5202 18.5165C24.8589 19.5057 27.8375 20.835 29.6866 22.6467C30.6244 23.5657 31.3009 24.6374 31.5542 25.8751C31.8087 27.1183 31.618 28.4406 30.973 29.8227L29.3884 29.0832C29.9049 27.9765 30.0071 27.0368 29.8411 26.2258C29.674 25.4092 29.2168 24.6345 28.4628 23.8957C26.9282 22.3921 24.2908 21.1611 21.0235 20.1931C14.5249 18.2676 6.02679 17.5196 0.458007 17.3673L0.505812 15.6194ZM30.973 29.8227C30.3125 31.238 29.4387 32.2549 28.4178 32.8899C27.3937 33.5271 26.2718 33.7482 25.1774 33.6502C23.0179 33.4567 20.9872 32.0324 19.8073 30.144C18.6121 28.2309 18.2223 25.7258 19.5439 23.3805C20.848 21.0659 23.7086 19.1062 28.5708 17.9675L28.9695 19.67C24.3428 20.7536 22.0319 22.5269 21.0673 24.2389C20.12 25.9201 20.364 27.7348 21.2903 29.2175C22.232 30.7248 23.8106 31.7721 25.3334 31.9085C26.0801 31.9754 26.8175 31.8261 27.4941 31.4052C28.174 30.9823 28.8423 30.2534 29.3884 29.0832L30.973 29.8227ZM28.5708 17.9675C32.5145 17.0439 35.7139 17.3591 38.2679 18.5757C40.8177 19.7903 42.6251 21.8562 43.8756 24.2556C46.358 29.0185 46.7325 35.2522 46.3464 39.5104L44.6049 39.3524C44.9762 35.2582 44.5891 29.4079 42.3249 25.0637C41.2022 22.9095 39.6401 21.1662 37.5159 20.1543C35.3959 19.1444 32.6169 18.8159 28.9695 19.67L28.5708 17.9675Z" fill="#59FF00"/>
<circle cx="0.941657" cy="0.941657" r="0.829692" transform="matrix(0.882029 -0.471195 -0.471195 -0.882029 29.0244 38.6099)" fill="#D9D9D9" stroke="#59FF00" stroke-width="0.22393"/>
<ellipse cx="0.432868" cy="0.432868" rx="0.432868" ry="0.432868" transform="matrix(0.226854 0.973929 0.973929 -0.226854 44.2754 41.3552)" fill="#D9D9D9"/>
<circle cx="2.65654" cy="2.65654" r="1.82684" transform="matrix(0.944321 -0.329026 -0.329026 -0.944321 16.2119 14.6321)" fill="#D9D9D9" stroke="#59FF00" stroke-width="1.65938"/>
</svg>
