<svg width="233" height="49" viewBox="0 0 233 49" fill="none" xmlns="http://www.w3.org/2000/svg">
<path d="M47.12 8.28206C47.12 7.63806 46.924 7.31606 46.532 7.31606C46.084 7.31606 45.706 7.65206 45.398 8.32406C45.118 8.96806 44.978 9.78006 44.978 10.7601C44.978 11.7401 45.174 12.5801 45.566 13.2801C46.602 11.2921 47.12 9.62606 47.12 8.28206ZM9.194 24.2421C10.874 24.2421 12.806 23.6821 14.99 22.5621C17.174 21.4141 19.05 20.0001 20.618 18.3201C22.186 16.6401 22.97 15.1141 22.97 13.7421C22.97 12.9021 22.466 12.4821 21.458 12.4821C19.442 12.4821 17.118 13.5461 14.486 15.6741C11.854 17.8021 9.39 20.5041 7.094 23.7801C7.626 24.0881 8.326 24.2421 9.194 24.2421ZM44.348 10.8861C44.348 9.71006 44.558 8.73006 44.978 7.94606C45.426 7.13406 45.986 6.72806 46.658 6.72806C47.358 6.72806 47.708 7.40006 47.708 8.74406C47.708 10.0601 47.134 11.7541 45.986 13.8261C46.49 14.3301 47.176 14.5821 48.044 14.5821C48.912 14.5821 49.92 14.2041 51.068 13.4481C52.216 12.6641 52.958 11.9921 53.294 11.4321L53.672 11.6001C53.476 11.8521 53.196 12.1741 52.832 12.5661C52.468 12.9581 51.74 13.4761 50.648 14.1201C49.584 14.7641 48.604 15.0861 47.708 15.0861C46.812 15.0861 46.126 14.8481 45.65 14.3721C43.662 17.7601 40.624 21.4841 36.536 25.5441C32.476 29.5761 28.36 33.0061 24.188 35.8341C20.016 38.6341 16.852 40.0341 14.696 40.0341C12.988 40.0341 12.134 39.0821 12.134 37.1781C12.134 35.9461 12.596 34.5881 13.52 33.1041C14.472 31.5921 15.634 30.1641 17.006 28.8201C18.406 27.4761 19.918 26.0341 21.542 24.4941C23.194 22.9261 24.706 21.4701 26.078 20.1261C27.478 18.7541 28.64 17.3121 29.564 15.8001C30.516 14.2881 30.992 12.9021 30.992 11.6421C30.992 9.71006 30.432 8.28206 29.312 7.35806C28.192 6.40606 26.526 5.93006 24.314 5.93006C22.102 5.93006 19.484 6.63006 16.46 8.03006C13.436 9.40206 10.832 11.2221 8.648 13.4901C6.492 15.7581 5.414 17.9981 5.414 20.2101C5.414 21.6941 5.806 22.7581 6.59 23.4021C8.914 20.0701 11.462 17.3261 14.234 15.1701C17.034 13.0141 19.582 11.9361 21.878 11.9361C22.55 11.9361 23.068 12.1321 23.432 12.5241C23.796 12.8881 23.978 13.3921 23.978 14.0361C23.978 15.5481 23.152 17.1721 21.5 18.9081C19.848 20.6161 17.86 22.0441 15.536 23.1921C13.212 24.3121 11.112 24.8721 9.236 24.8721C8.256 24.8721 7.416 24.6901 6.716 24.3261C2.852 30.0381 0.92 35.1061 0.92 39.5301C0.92 42.2181 1.788 44.3461 3.524 45.9141C5.26 47.4821 8.018 48.2661 11.798 48.2661C16.782 48.2661 21.64 46.6141 26.372 43.3101C31.132 40.0341 34.198 36.1281 35.57 31.5921L36.2 31.5081C35.276 34.7841 33.456 37.7661 30.74 40.4541C28.024 43.1421 24.944 45.2001 21.5 46.6281C18.056 48.0841 14.556 48.8121 11 48.8121C7.444 48.8121 4.77 47.9861 2.978 46.3341C1.214 44.6821 0.332 42.4421 0.332 39.6141C0.332 37.3461 0.864 34.8401 1.928 32.0961C2.992 29.3241 4.42 26.6221 6.212 23.9901C5.204 23.2341 4.7 22.0021 4.7 20.2941C4.7 18.0821 5.792 15.8001 7.976 13.4481C10.188 11.0961 12.862 9.17806 15.998 7.69406C19.134 6.21006 21.92 5.46806 24.356 5.46806C29.424 5.46806 31.958 7.91806 31.958 12.8181C31.958 14.6661 31.3 16.5981 29.984 18.6141C28.668 20.6021 27.072 22.4501 25.196 24.1581C23.348 25.8381 21.486 27.4761 19.61 29.0721C15.102 32.8521 12.848 35.7081 12.848 37.6401C12.848 38.8441 13.45 39.4461 14.654 39.4461C16.586 39.4461 19.596 38.0741 23.684 35.3301C27.8 32.5861 31.944 29.1841 36.116 25.1241C40.288 21.0361 43.326 17.2981 45.23 13.9101C44.642 13.0701 44.348 12.0621 44.348 10.8861ZM47.4763 26.9721C47.4763 27.3641 47.2523 27.7421 46.8043 28.1061C46.3563 28.4701 45.9363 28.6521 45.5443 28.6521C45.1803 28.6521 44.9983 28.4981 44.9983 28.1901C44.9983 27.8821 45.2223 27.5321 45.6703 27.1401C46.1183 26.7201 46.5243 26.5101 46.8883 26.5101C47.2803 26.5101 47.4763 26.6641 47.4763 26.9721ZM43.9063 31.5081C40.1263 34.9241 38.2363 37.0661 38.2363 37.9341C38.2363 38.2141 38.4323 38.3541 38.8243 38.3541C39.1883 38.3541 39.7483 38.1861 40.5043 37.8501C41.2603 37.5141 41.9323 37.1781 42.5203 36.8421C43.1083 36.4781 43.8083 36.0441 44.6203 35.5401C45.4603 35.0081 45.9083 34.7281 45.9643 34.7001L46.0483 35.3301C44.7603 36.1701 43.2903 37.0101 41.6383 37.8501C39.9863 38.6901 38.7403 39.1101 37.9003 39.1101C37.0323 39.1101 36.5983 38.7601 36.5983 38.0601C36.5983 37.4721 37.1023 36.5901 38.1103 35.4141C39.1183 34.2101 40.1263 33.1601 41.1343 32.2641L42.6463 30.9201C42.7863 30.8081 43.0523 30.7661 43.4443 30.7941C43.8363 30.8221 44.0323 30.9621 44.0323 31.2141C44.0323 31.3261 43.9903 31.4241 43.9063 31.5081ZM71.415 15.0021C71.415 14.8061 71.275 14.7081 70.995 14.7081C69.875 14.7081 67.103 16.7101 62.679 20.7141C58.283 24.7181 54.335 28.5961 50.835 32.3481C54.867 29.7441 59.305 26.4261 64.149 22.3941C68.993 18.3621 71.415 15.8981 71.415 15.0021ZM54.867 34.7421L55.287 35.6241C55.287 35.8481 54.979 36.2541 54.363 36.8421C53.747 37.4301 53.439 37.8361 53.439 38.0601C53.439 38.2561 53.677 38.3541 54.153 38.3541C54.657 38.3541 55.287 38.1861 56.043 37.8501C56.799 37.5141 57.471 37.1781 58.059 36.8421C58.647 36.4781 59.347 36.0441 60.159 35.5401C60.999 35.0081 61.447 34.7281 61.503 34.7001L61.587 35.3301C60.551 36.0861 59.165 36.9121 57.429 37.8081C55.693 38.6761 54.335 39.1101 53.355 39.1101C52.375 39.1101 51.885 38.6761 51.885 37.8081C51.885 37.4161 52.207 36.9261 52.851 36.3381C53.523 35.7221 53.859 35.3441 53.859 35.2041C53.859 35.0641 53.789 34.9941 53.649 34.9941C53.089 34.9101 52.809 34.7001 52.809 34.3641C52.809 34.2521 52.851 34.1961 52.935 34.1961H53.439C55.007 34.1961 56.323 33.8461 57.387 33.1461C58.451 32.4461 58.983 31.8301 58.983 31.2981C58.983 31.1021 58.885 31.0041 58.689 31.0041C56.645 31.0041 52.571 33.1741 46.467 37.5141L44.955 38.7741C44.843 38.8861 44.563 38.9421 44.115 38.9421C43.667 38.9421 43.443 38.8581 43.443 38.6901C43.443 38.6061 43.499 38.4941 43.611 38.3541C46.551 35.0501 49.841 31.5921 53.481 27.9801C57.121 24.3681 60.677 21.1481 64.149 18.3201C67.649 15.4641 70.029 14.0361 71.289 14.0361C71.961 14.0361 72.297 14.2461 72.297 14.6661C72.297 15.5621 70.883 17.2981 68.055 19.8741C65.255 22.4221 62.105 24.9841 58.605 27.5601C55.105 30.1361 52.095 32.1801 49.575 33.6921C48.623 34.7841 48.077 35.4701 47.937 35.7501C49.421 34.7141 50.611 33.9161 51.507 33.3561C52.403 32.7681 53.579 32.1381 55.035 31.4661C56.519 30.7661 57.779 30.4161 58.815 30.4161C59.851 30.4161 60.369 30.8361 60.369 31.6761C60.369 32.5161 59.809 33.2301 58.689 33.8181C57.597 34.3781 56.519 34.6581 55.455 34.6581C55.231 34.6581 55.077 34.6581 54.993 34.6581C54.909 34.6301 54.867 34.6581 54.867 34.7421ZM62.9665 38.1441C64.0305 38.1441 65.4445 37.6121 67.2085 36.5481C69.0005 35.4561 70.4845 34.4061 71.6605 33.3981C72.8645 32.3901 73.4665 31.8021 73.4665 31.6341C73.4665 31.4661 73.2565 31.3261 72.8365 31.2141C72.4445 31.1021 71.8985 31.0461 71.1985 31.0461C70.4985 31.0461 69.5745 31.3261 68.4265 31.8861C67.2785 32.4181 66.2845 33.0621 65.4445 33.8181C64.6045 34.5741 63.9045 35.3161 63.3445 36.0441C62.7845 36.7721 62.5045 37.3041 62.5045 37.6401C62.5045 37.9761 62.6585 38.1441 62.9665 38.1441ZM74.2225 31.0881C74.7825 30.6401 75.0905 30.4161 75.1465 30.4161C75.9025 30.5001 76.2945 30.5701 76.3225 30.6261C76.3505 30.6541 76.3645 30.6961 76.3645 30.7521C76.3645 30.8081 76.2525 30.9901 76.0285 31.2981C75.8045 31.5781 75.1465 32.2641 74.0545 33.3561C71.3385 36.0161 69.9805 37.6261 69.9805 38.1861C69.9805 38.4101 70.0785 38.5221 70.2745 38.5221C71.6185 38.5221 74.1385 37.2481 77.8345 34.7001L77.9185 35.3301C74.1945 37.7661 71.5625 38.9841 70.0225 38.9841C69.2665 38.9841 68.8885 38.6341 68.8885 37.9341C68.8885 37.2061 69.3225 36.2681 70.1905 35.1201C66.8865 37.5561 64.3105 38.7881 62.4625 38.8161C61.7905 38.8161 61.4545 38.4101 61.4545 37.5981C61.4545 36.1421 62.3785 34.5881 64.2265 32.9361C66.1025 31.2841 68.5665 30.4581 71.6185 30.4581C72.6265 30.4581 73.4945 30.6681 74.2225 31.0881ZM85.9142 29.6181C86.0262 29.4501 86.1522 29.3661 86.2922 29.3661C86.4602 29.3661 86.5442 29.4501 86.5442 29.6181C86.5442 29.7861 86.4602 29.9541 86.2922 30.1221C86.1242 30.2901 85.9982 30.8081 85.9142 31.6761C85.8582 32.5161 85.6482 33.5521 85.2842 34.7841C84.9202 35.9881 84.2902 37.0801 83.3942 38.0601C83.3942 38.1161 83.4502 38.1441 83.5622 38.1441C83.7582 38.1441 84.4722 37.8081 85.7042 37.1361L86.2922 36.8421C87.3562 36.2541 88.4902 35.5401 89.6942 34.7001L89.7782 35.3301C85.4102 38.1581 82.0642 39.5721 79.7402 39.5721C78.8162 39.5721 78.1442 39.3761 77.7242 38.9841C77.2762 38.5921 77.0522 38.1581 77.0522 37.6821C77.0522 37.2061 77.1642 36.8281 77.3882 36.5481C77.6122 36.2401 77.8922 36.0861 78.2282 36.0861C78.6482 36.0861 78.8582 36.3101 78.8582 36.7581C78.8582 37.0381 78.6342 37.2901 78.1862 37.5141C78.0462 37.5981 77.9762 37.7381 77.9762 37.9341C77.9762 38.1301 78.1442 38.3541 78.4802 38.6061C78.7882 38.8861 79.1242 39.0261 79.4882 39.0261C80.7202 39.0261 81.7702 38.2561 82.6382 36.7161C83.5342 35.1481 84.1082 33.5941 84.3602 32.0541V31.9281C81.6442 33.7761 79.8102 34.9801 78.8582 35.5401L78.7322 34.9521C83.2962 32.0121 85.6902 30.2341 85.9142 29.6181ZM115.144 15.0021C115.144 14.8061 115.004 14.7081 114.724 14.7081C113.604 14.7081 110.832 16.7101 106.408 20.7141C102.012 24.7181 98.0643 28.5961 94.5643 32.3481C98.5963 29.7441 103.034 26.4261 107.878 22.3941C112.722 18.3621 115.144 15.8981 115.144 15.0021ZM97.0843 37.8081C97.0843 38.1721 97.2663 38.3541 97.6303 38.3541C98.0223 38.3541 98.5963 38.1861 99.3523 37.8501C100.108 37.5141 100.78 37.1781 101.368 36.8421C101.956 36.4781 102.656 36.0441 103.468 35.5401C104.308 35.0081 104.756 34.7281 104.812 34.7001L104.896 35.3301C101.116 37.8501 98.4703 39.1101 96.9583 39.1101C96.2303 39.1101 95.8663 38.7461 95.8663 38.0181C95.8663 37.2901 96.3143 36.4921 97.2103 35.6241C98.1343 34.7281 99.0443 33.9301 99.9403 33.2301C100.864 32.5301 101.326 32.0261 101.326 31.7181C101.326 31.6061 101.228 31.5501 101.032 31.5501C100.388 31.5501 98.6383 32.3621 95.7823 33.9861C92.9263 35.5821 91.0643 36.7581 90.1963 37.5141L88.6843 38.7741C88.5723 38.8861 88.2923 38.9421 87.8443 38.9421C87.3963 38.9421 87.1723 38.8581 87.1723 38.6901C87.1723 38.6061 87.2283 38.4941 87.3403 38.3541C90.2803 35.0501 93.5703 31.5921 97.2103 27.9801C100.85 24.3681 104.406 21.1481 107.878 18.3201C111.378 15.4641 113.758 14.0361 115.018 14.0361C115.69 14.0361 116.026 14.2461 116.026 14.6661C116.026 15.5621 114.612 17.2981 111.784 19.8741C108.984 22.4221 105.834 24.9841 102.334 27.5601C98.8343 30.1361 95.8243 32.1801 93.3043 33.6921C92.3243 34.8121 91.7643 35.5261 91.6243 35.8341C91.7363 35.8341 91.8203 35.8201 91.8763 35.7921C93.6683 34.5321 95.5303 33.4121 97.4623 32.4321C99.3943 31.4521 100.612 30.9621 101.116 30.9621C101.62 30.9621 101.956 31.0601 102.124 31.2561C102.32 31.4521 102.418 31.6621 102.418 31.8861C102.418 32.5581 101.97 33.3141 101.074 34.1541C100.206 34.9941 99.3243 35.7501 98.4283 36.4221C97.5323 37.0941 97.0843 37.5561 97.0843 37.8081ZM158.299 20.3361C157.991 20.6721 157.501 21.1761 156.829 21.8481C157.949 21.8481 159.209 21.7221 160.609 21.4701C159.965 20.9661 159.195 20.5881 158.299 20.3361ZM155.191 19.9161C153.511 19.9161 152.671 20.1541 152.671 20.6301C152.671 21.1061 153.357 21.4701 154.729 21.7221C155.513 20.8821 156.059 20.2941 156.367 19.9581C156.115 19.9301 155.723 19.9161 155.191 19.9161ZM161.155 31.3821L159.895 31.3401C157.459 31.3401 155.037 32.0681 152.629 33.5241C150.249 34.9801 149.059 36.2541 149.059 37.3461C149.059 38.1021 149.773 38.4801 151.201 38.4801C153.189 38.4801 155.079 37.8081 156.871 36.4641C158.691 35.0921 160.119 33.3981 161.155 31.3821ZM124.993 28.9041C127.289 28.4841 129.473 28.2741 131.545 28.2741C133.645 28.2741 135.563 28.4561 137.299 28.8201C137.887 27.7001 138.181 26.7201 138.181 25.8801C138.181 24.1161 137.019 23.2341 134.695 23.2341C132.707 23.2341 130.845 23.7801 129.109 24.8721C127.401 25.9361 126.029 27.2801 124.993 28.9041ZM127.009 38.4381C128.045 38.8301 129.361 39.0261 130.957 39.0261C132.581 39.0261 134.695 38.4241 137.299 37.2201C139.959 35.9881 142.087 34.5741 143.683 32.9781C142.423 31.5221 140.617 30.4301 138.265 29.7021C137.285 31.4661 135.801 33.1461 133.813 34.7421C131.825 36.3381 129.557 37.5701 127.009 38.4381ZM114.703 36.3381C114.703 37.1781 115.151 37.8501 116.047 38.3541C116.971 38.8861 118.301 39.1521 120.037 39.1521C121.773 39.1521 123.509 38.8721 125.245 38.3121C123.621 37.3041 122.809 35.7781 122.809 33.7341C122.809 32.3621 123.187 30.9761 123.943 29.5761C121.143 30.2761 118.903 31.2841 117.223 32.6001C115.543 33.8881 114.703 35.1341 114.703 36.3381ZM161.449 21.2601C164.333 20.5321 166.685 19.2861 168.505 17.5221C170.325 15.7301 171.235 13.8821 171.235 11.9781C171.235 10.9421 170.913 9.97606 170.269 9.08006C167.917 10.7321 165.537 12.7901 163.129 15.2541C162.597 15.7861 161.113 17.3401 158.677 19.9161C159.741 20.1961 160.665 20.6441 161.449 21.2601ZM137.005 29.3241C135.185 28.9041 133.225 28.6941 131.125 28.6941C129.053 28.6941 126.897 28.9321 124.657 29.4081C123.845 30.8081 123.439 32.2081 123.439 33.6081C123.439 35.6241 124.321 37.1081 126.085 38.0601C128.437 37.1921 130.593 35.9461 132.553 34.3221C134.513 32.6981 135.997 31.0321 137.005 29.3241ZM145.237 10.5501C143.921 11.7821 142.899 13.0561 142.171 14.3721C141.443 15.6601 141.079 16.8081 141.079 17.8161C141.079 18.8241 141.345 19.6081 141.877 20.1681C142.437 20.7281 143.221 21.0081 144.229 21.0081C146.357 21.0081 148.485 20.2521 150.613 18.7401C152.741 17.2281 154.463 15.3941 155.779 13.2381C157.095 11.0541 157.753 8.99606 157.753 7.06406C157.753 6.53206 157.697 6.05606 157.585 5.63606C155.037 5.83206 152.671 6.39206 150.487 7.31606C148.331 8.21206 146.581 9.29006 145.237 10.5501ZM160.231 30.7941L161.449 30.8361C162.233 29.1841 162.625 27.5461 162.625 25.9221C162.625 24.2981 162.121 22.9681 161.113 21.9321C159.517 22.2121 157.935 22.3521 156.367 22.3521C152.391 26.4961 149.941 29.1001 149.017 30.1641C148.177 31.0041 146.959 32.0401 145.363 33.2721C146.483 34.6441 147.043 36.0861 147.043 37.5981C147.043 39.7541 145.895 41.7141 143.599 43.4781C141.331 45.2701 137.971 46.5021 133.519 47.1741V46.7121C137.411 46.0961 140.393 44.9201 142.465 43.1841C144.537 41.4761 145.573 39.5721 145.573 37.4721C145.573 36.2401 145.195 35.0501 144.439 33.9021C139.035 37.6821 134.373 39.5721 130.453 39.5721C128.661 39.5721 127.177 39.2921 126.001 38.7321C123.957 39.3201 121.941 39.6141 119.953 39.6141C117.965 39.6141 116.439 39.2921 115.375 38.6481C114.311 38.0321 113.779 37.2341 113.779 36.2541C113.779 34.9101 114.703 33.5521 116.551 32.1801C118.399 30.7801 120.961 29.7301 124.237 29.0301C125.329 27.2101 126.841 25.6981 128.773 24.4941C130.733 23.2621 132.875 22.6461 135.199 22.6461C136.627 22.6461 137.691 22.9541 138.391 23.5701C139.091 24.1581 139.441 24.9561 139.441 25.9641C139.441 26.9721 139.147 28.0361 138.559 29.1561C140.939 29.8561 142.885 30.8921 144.397 32.2641C145.769 30.9201 149.031 27.5741 154.183 22.2261C152.671 21.9741 151.915 21.5121 151.915 20.8401C151.915 20.4761 152.237 20.1681 152.881 19.9161C153.525 19.6361 154.211 19.4961 154.939 19.4961C155.667 19.4961 156.283 19.5241 156.787 19.5801L158.257 18.0261C162.065 13.8821 165.859 10.6621 169.639 8.36606C167.679 6.49006 164.347 5.55206 159.643 5.55206C159.475 5.55206 159.307 5.56606 159.139 5.59406C158.971 5.59406 158.845 5.59406 158.761 5.59406C158.901 6.15406 158.971 6.70006 158.971 7.23206C158.971 9.30406 158.285 11.4461 156.913 13.6581C155.569 15.8421 153.693 17.7041 151.285 19.2441C148.877 20.7841 146.357 21.5541 143.725 21.5541C142.437 21.5541 141.443 21.2321 140.743 20.5881C140.071 19.9441 139.735 19.0621 139.735 17.9421C139.735 16.8221 140.127 15.5901 140.911 14.2461C141.723 12.9021 142.829 11.6001 144.229 10.3401C145.657 9.05206 147.533 7.94606 149.857 7.02206C152.209 6.07006 154.757 5.48206 157.501 5.25806C156.689 2.54206 154.155 1.18406 149.899 1.18406C148.499 1.18406 147.001 1.42206 145.405 1.89806C143.809 2.34606 142.381 2.90606 141.121 3.57806C138.573 4.95006 136.585 6.19606 135.157 7.31606L134.275 7.98806L133.855 7.61006C134.527 7.02206 135.549 6.26606 136.921 5.34206C138.321 4.41806 139.637 3.64806 140.869 3.03206C142.101 2.38806 143.571 1.81406 145.279 1.31006C147.015 0.806056 148.667 0.554056 150.235 0.554056C154.911 0.554056 157.725 2.09406 158.677 5.17406C159.153 5.14606 159.587 5.13206 159.979 5.13206C164.515 5.13206 167.945 6.08406 170.269 7.98806C173.741 5.97206 176.919 4.96406 179.803 4.96406C181.987 4.96406 183.667 5.39806 184.843 6.26606C186.019 7.10606 186.607 8.22606 186.607 9.62606C186.607 11.0261 185.823 12.4121 184.255 13.7841C182.715 15.1561 180.573 16.0801 177.829 16.5561L177.409 16.2201C179.957 15.7441 181.917 14.8901 183.289 13.6581C184.689 12.4261 185.389 11.1661 185.389 9.87806C185.389 8.59006 184.857 7.54006 183.793 6.72806C182.757 5.91606 181.287 5.51006 179.383 5.51006C176.891 5.51006 174.077 6.54606 170.941 8.61806C172.033 9.79406 172.579 11.1241 172.579 12.6081C172.579 14.5401 171.641 16.3741 169.765 18.1101C167.917 19.8181 165.327 21.0361 161.995 21.7641C163.367 23.1361 164.053 24.8861 164.053 27.0141C164.053 28.3301 163.773 29.6601 163.213 31.0041C165.341 31.3401 166.937 31.9841 168.001 32.9361C169.093 33.8881 169.639 35.0221 169.639 36.3381C169.639 38.2701 168.561 40.1181 166.405 41.8821C164.277 43.6741 161.449 44.8361 157.921 45.3681L157.753 44.8641C160.777 44.5841 163.325 43.5621 165.397 41.7981C167.469 40.0621 168.505 38.2421 168.505 36.3381C168.505 35.1901 168.043 34.1961 167.119 33.3561C166.223 32.4881 164.851 31.9001 163.003 31.5921C162.023 33.7481 160.455 35.5261 158.299 36.9261C156.171 38.3261 153.651 39.0261 150.739 39.0261C149.283 39.0261 148.555 38.5361 148.555 37.5561C148.555 36.2121 149.731 34.7561 152.083 33.1881C154.435 31.5921 157.151 30.7941 160.231 30.7941ZM174.818 38.3961C176.834 38.3961 178.794 37.3881 180.698 35.3721V35.3301C180.698 33.9861 181.342 32.7261 182.63 31.5501C182.546 31.2421 182.308 31.0881 181.916 31.0881C179.844 31.0881 178.01 31.8721 176.414 33.4401C174.818 34.9801 174.02 36.3381 174.02 37.5141C174.02 38.1021 174.286 38.3961 174.818 38.3961ZM181.328 30.4581C182.812 30.4581 183.554 30.9481 183.554 31.9281C183.554 32.7681 183.036 33.7761 182 34.9521V35.2881C182 36.2121 182.406 36.6741 183.218 36.6741C183.722 36.6741 184.282 36.4641 184.898 36.0441L186.956 34.7001L187.04 35.3301L185.108 36.5481C184.212 37.1361 183.33 37.4301 182.462 37.4301C181.622 37.4301 181.062 36.9961 180.782 36.1281C178.542 38.1161 176.414 39.1101 174.398 39.1101C173.194 39.1101 172.592 38.5361 172.592 37.3881C172.592 35.9321 173.446 34.4201 175.154 32.8521C176.862 31.2561 178.92 30.4581 181.328 30.4581ZM189.244 38.3961C191.26 38.3961 193.22 37.3881 195.124 35.3721V35.3301C195.124 33.9861 195.768 32.7261 197.056 31.5501C196.972 31.2421 196.734 31.0881 196.342 31.0881C194.27 31.0881 192.436 31.8721 190.84 33.4401C189.244 34.9801 188.446 36.3381 188.446 37.5141C188.446 38.1021 188.712 38.3961 189.244 38.3961ZM195.754 30.4581C197.238 30.4581 197.98 30.9481 197.98 31.9281C197.98 32.7681 197.462 33.7761 196.426 34.9521V35.2881C196.426 36.2121 196.832 36.6741 197.644 36.6741C198.148 36.6741 198.708 36.4641 199.324 36.0441L201.382 34.7001L201.466 35.3301L199.534 36.5481C198.638 37.1361 197.756 37.4301 196.888 37.4301C196.048 37.4301 195.488 36.9961 195.208 36.1281C192.968 38.1161 190.84 39.1101 188.824 39.1101C187.62 39.1101 187.018 38.5361 187.018 37.3881C187.018 35.9321 187.872 34.4201 189.58 32.8521C191.288 31.2561 193.346 30.4581 195.754 30.4581ZM208.332 32.0961L210.306 31.8441C210.642 31.8441 210.908 31.9561 211.104 32.1801C211.3 32.4041 211.398 32.6701 211.398 32.9781C211.398 33.5941 210.964 34.2661 210.096 34.9941C209.228 35.7221 208.36 36.4081 207.492 37.0521C206.652 37.6961 206.232 38.2141 206.232 38.6061C206.232 38.8301 206.414 38.9421 206.778 38.9421C207.982 38.9421 209.816 38.2421 212.28 36.8421C213.344 36.2541 214.478 35.5401 215.682 34.7001L215.766 35.3301C214.814 35.9461 213.75 36.5761 212.574 37.2201C211.902 37.6401 210.922 38.1161 209.634 38.6481C208.346 39.2081 207.282 39.4881 206.442 39.4881C205.602 39.4881 205.182 39.1101 205.182 38.3541C205.182 37.4861 205.63 36.6741 206.526 35.9181C207.422 35.1341 208.304 34.4901 209.172 33.9861C210.068 33.4541 210.516 33.0481 210.516 32.7681C210.516 32.6841 210.418 32.6421 210.222 32.6421L207.87 32.8521C207.422 32.8521 207.016 32.8101 206.652 32.7261C205.308 33.6781 203.894 34.6161 202.41 35.5401L202.284 34.9521L206.274 32.1801C206.302 31.6481 206.638 31.1161 207.282 30.5841C207.926 30.0521 208.472 29.7861 208.92 29.7861C209.368 29.7861 209.592 29.9121 209.592 30.1641C209.592 30.3881 209.326 30.6821 208.794 31.0461C208.262 31.4101 207.996 31.6761 207.996 31.8441C207.996 32.0121 208.108 32.0961 208.332 32.0961ZM217.134 38.1441C218.198 38.1441 219.612 37.6121 221.376 36.5481C223.168 35.4561 224.652 34.4061 225.828 33.3981C227.032 32.3901 227.634 31.8021 227.634 31.6341C227.634 31.4661 227.424 31.3261 227.004 31.2141C226.612 31.1021 226.066 31.0461 225.366 31.0461C224.666 31.0461 223.742 31.3261 222.594 31.8861C221.446 32.4181 220.452 33.0621 219.612 33.8181C218.772 34.5741 218.072 35.3161 217.512 36.0441C216.952 36.7721 216.672 37.3041 216.672 37.6401C216.672 37.9761 216.826 38.1441 217.134 38.1441ZM228.39 31.0881C228.95 30.6401 229.258 30.4161 229.314 30.4161C230.07 30.5001 230.462 30.5701 230.49 30.6261C230.518 30.6541 230.532 30.6961 230.532 30.7521C230.532 30.8081 230.42 30.9901 230.196 31.2981C229.972 31.5781 229.314 32.2641 228.222 33.3561C225.506 36.0161 224.148 37.6261 224.148 38.1861C224.148 38.4101 224.246 38.5221 224.442 38.5221C225.786 38.5221 228.306 37.2481 232.002 34.7001L232.086 35.3301C228.362 37.7661 225.73 38.9841 224.19 38.9841C223.434 38.9841 223.056 38.6341 223.056 37.9341C223.056 37.2061 223.49 36.2681 224.358 35.1201C221.054 37.5561 218.478 38.7881 216.63 38.8161C215.958 38.8161 215.622 38.4101 215.622 37.5981C215.622 36.1421 216.546 34.5881 218.394 32.9361C220.27 31.2841 222.734 30.4581 225.786 30.4581C226.794 30.4581 227.662 30.6681 228.39 31.0881Z" fill="white"/>
</svg>
