<svg width="233" height="49" viewBox="0 0 233 49" fill="none" xmlns="http://www.w3.org/2000/svg">
<path d="M47.62 8.222C47.62 7.578 47.424 7.256 47.032 7.256C46.584 7.256 46.206 7.592 45.898 8.264C45.618 8.908 45.478 9.72 45.478 10.7C45.478 11.68 45.674 12.52 46.066 13.22C47.102 11.232 47.62 9.566 47.62 8.222ZM9.694 24.182C11.374 24.182 13.306 23.622 15.49 22.502C17.674 21.354 19.55 19.94 21.118 18.26C22.686 16.58 23.47 15.054 23.47 13.682C23.47 12.842 22.966 12.422 21.958 12.422C19.942 12.422 17.618 13.486 14.986 15.614C12.354 17.742 9.89 20.444 7.594 23.72C8.126 24.028 8.826 24.182 9.694 24.182ZM44.848 10.826C44.848 9.65 45.058 8.67 45.478 7.886C45.926 7.074 46.486 6.668 47.158 6.668C47.858 6.668 48.208 7.34 48.208 8.684C48.208 10 47.634 11.694 46.486 13.766C46.99 14.27 47.676 14.522 48.544 14.522C49.412 14.522 50.42 14.144 51.568 13.388C52.716 12.604 53.458 11.932 53.794 11.372L54.172 11.54C53.976 11.792 53.696 12.114 53.332 12.506C52.968 12.898 52.24 13.416 51.148 14.06C50.084 14.704 49.104 15.026 48.208 15.026C47.312 15.026 46.626 14.788 46.15 14.312C44.162 17.7 41.124 21.424 37.036 25.484C32.976 29.516 28.86 32.946 24.688 35.774C20.516 38.574 17.352 39.974 15.196 39.974C13.488 39.974 12.634 39.022 12.634 37.118C12.634 35.886 13.096 34.528 14.02 33.044C14.972 31.532 16.134 30.104 17.506 28.76C18.906 27.416 20.418 25.974 22.042 24.434C23.694 22.866 25.206 21.41 26.578 20.066C27.978 18.694 29.14 17.252 30.064 15.74C31.016 14.228 31.492 12.842 31.492 11.582C31.492 9.65 30.932 8.222 29.812 7.298C28.692 6.346 27.026 5.87 24.814 5.87C22.602 5.87 19.984 6.57 16.96 7.97C13.936 9.342 11.332 11.162 9.148 13.43C6.992 15.698 5.914 17.938 5.914 20.15C5.914 21.634 6.306 22.698 7.09 23.342C9.414 20.01 11.962 17.266 14.734 15.11C17.534 12.954 20.082 11.876 22.378 11.876C23.05 11.876 23.568 12.072 23.932 12.464C24.296 12.828 24.478 13.332 24.478 13.976C24.478 15.488 23.652 17.112 22 18.848C20.348 20.556 18.36 21.984 16.036 23.132C13.712 24.252 11.612 24.812 9.736 24.812C8.756 24.812 7.916 24.63 7.216 24.266C3.352 29.978 1.42 35.046 1.42 39.47C1.42 42.158 2.288 44.286 4.024 45.854C5.76 47.422 8.518 48.206 12.298 48.206C17.282 48.206 22.14 46.554 26.872 43.25C31.632 39.974 34.698 36.068 36.07 31.532L36.7 31.448C35.776 34.724 33.956 37.706 31.24 40.394C28.524 43.082 25.444 45.14 22 46.568C18.556 48.024 15.056 48.752 11.5 48.752C7.944 48.752 5.27 47.926 3.478 46.274C1.714 44.622 0.832 42.382 0.832 39.554C0.832 37.286 1.364 34.78 2.428 32.036C3.492 29.264 4.92 26.562 6.712 23.93C5.704 23.174 5.2 21.942 5.2 20.234C5.2 18.022 6.292 15.74 8.476 13.388C10.688 11.036 13.362 9.118 16.498 7.634C19.634 6.15 22.42 5.408 24.856 5.408C29.924 5.408 32.458 7.858 32.458 12.758C32.458 14.606 31.8 16.538 30.484 18.554C29.168 20.542 27.572 22.39 25.696 24.098C23.848 25.778 21.986 27.416 20.11 29.012C15.602 32.792 13.348 35.648 13.348 37.58C13.348 38.784 13.95 39.386 15.154 39.386C17.086 39.386 20.096 38.014 24.184 35.27C28.3 32.526 32.444 29.124 36.616 25.064C40.788 20.976 43.826 17.238 45.73 13.85C45.142 13.01 44.848 12.002 44.848 10.826ZM47.9763 26.912C47.9763 27.304 47.7523 27.682 47.3043 28.046C46.8563 28.41 46.4363 28.592 46.0443 28.592C45.6803 28.592 45.4983 28.438 45.4983 28.13C45.4983 27.822 45.7223 27.472 46.1703 27.08C46.6183 26.66 47.0243 26.45 47.3883 26.45C47.7803 26.45 47.9763 26.604 47.9763 26.912ZM44.4063 31.448C40.6263 34.864 38.7363 37.006 38.7363 37.874C38.7363 38.154 38.9323 38.294 39.3243 38.294C39.6883 38.294 40.2483 38.126 41.0043 37.79C41.7603 37.454 42.4323 37.118 43.0203 36.782C43.6083 36.418 44.3083 35.984 45.1203 35.48C45.9603 34.948 46.4083 34.668 46.4643 34.64L46.5483 35.27C45.2603 36.11 43.7903 36.95 42.1383 37.79C40.4863 38.63 39.2403 39.05 38.4003 39.05C37.5323 39.05 37.0983 38.7 37.0983 38C37.0983 37.412 37.6023 36.53 38.6103 35.354C39.6183 34.15 40.6263 33.1 41.6343 32.204L43.1463 30.86C43.2863 30.748 43.5523 30.706 43.9443 30.734C44.3363 30.762 44.5323 30.902 44.5323 31.154C44.5323 31.266 44.4903 31.364 44.4063 31.448ZM71.915 14.942C71.915 14.746 71.775 14.648 71.495 14.648C70.375 14.648 67.603 16.65 63.179 20.654C58.783 24.658 54.835 28.536 51.335 32.288C55.367 29.684 59.805 26.366 64.649 22.334C69.493 18.302 71.915 15.838 71.915 14.942ZM55.367 34.682L55.787 35.564C55.787 35.788 55.479 36.194 54.863 36.782C54.247 37.37 53.939 37.776 53.939 38C53.939 38.196 54.177 38.294 54.653 38.294C55.157 38.294 55.787 38.126 56.543 37.79C57.299 37.454 57.971 37.118 58.559 36.782C59.147 36.418 59.847 35.984 60.659 35.48C61.499 34.948 61.947 34.668 62.003 34.64L62.087 35.27C61.051 36.026 59.665 36.852 57.929 37.748C56.193 38.616 54.835 39.05 53.855 39.05C52.875 39.05 52.385 38.616 52.385 37.748C52.385 37.356 52.707 36.866 53.351 36.278C54.023 35.662 54.359 35.284 54.359 35.144C54.359 35.004 54.289 34.934 54.149 34.934C53.589 34.85 53.309 34.64 53.309 34.304C53.309 34.192 53.351 34.136 53.435 34.136H53.939C55.507 34.136 56.823 33.786 57.887 33.086C58.951 32.386 59.483 31.77 59.483 31.238C59.483 31.042 59.385 30.944 59.189 30.944C57.145 30.944 53.071 33.114 46.967 37.454L45.455 38.714C45.343 38.826 45.063 38.882 44.615 38.882C44.167 38.882 43.943 38.798 43.943 38.63C43.943 38.546 43.999 38.434 44.111 38.294C47.051 34.99 50.341 31.532 53.981 27.92C57.621 24.308 61.177 21.088 64.649 18.26C68.149 15.404 70.529 13.976 71.789 13.976C72.461 13.976 72.797 14.186 72.797 14.606C72.797 15.502 71.383 17.238 68.555 19.814C65.755 22.362 62.605 24.924 59.105 27.5C55.605 30.076 52.595 32.12 50.075 33.632C49.123 34.724 48.577 35.41 48.437 35.69C49.921 34.654 51.111 33.856 52.007 33.296C52.903 32.708 54.079 32.078 55.535 31.406C57.019 30.706 58.279 30.356 59.315 30.356C60.351 30.356 60.869 30.776 60.869 31.616C60.869 32.456 60.309 33.17 59.189 33.758C58.097 34.318 57.019 34.598 55.955 34.598C55.731 34.598 55.577 34.598 55.493 34.598C55.409 34.57 55.367 34.598 55.367 34.682ZM63.4665 38.084C64.5305 38.084 65.9445 37.552 67.7085 36.488C69.5005 35.396 70.9845 34.346 72.1605 33.338C73.3645 32.33 73.9665 31.742 73.9665 31.574C73.9665 31.406 73.7565 31.266 73.3365 31.154C72.9445 31.042 72.3985 30.986 71.6985 30.986C70.9985 30.986 70.0745 31.266 68.9265 31.826C67.7785 32.358 66.7845 33.002 65.9445 33.758C65.1045 34.514 64.4045 35.256 63.8445 35.984C63.2845 36.712 63.0045 37.244 63.0045 37.58C63.0045 37.916 63.1585 38.084 63.4665 38.084ZM74.7225 31.028C75.2825 30.58 75.5905 30.356 75.6465 30.356C76.4025 30.44 76.7945 30.51 76.8225 30.566C76.8505 30.594 76.8645 30.636 76.8645 30.692C76.8645 30.748 76.7525 30.93 76.5285 31.238C76.3045 31.518 75.6465 32.204 74.5545 33.296C71.8385 35.956 70.4805 37.566 70.4805 38.126C70.4805 38.35 70.5785 38.462 70.7745 38.462C72.1185 38.462 74.6385 37.188 78.3345 34.64L78.4185 35.27C74.6945 37.706 72.0625 38.924 70.5225 38.924C69.7665 38.924 69.3885 38.574 69.3885 37.874C69.3885 37.146 69.8225 36.208 70.6905 35.06C67.3865 37.496 64.8105 38.728 62.9625 38.756C62.2905 38.756 61.9545 38.35 61.9545 37.538C61.9545 36.082 62.8785 34.528 64.7265 32.876C66.6025 31.224 69.0665 30.398 72.1185 30.398C73.1265 30.398 73.9945 30.608 74.7225 31.028ZM86.4142 29.558C86.5262 29.39 86.6522 29.306 86.7922 29.306C86.9602 29.306 87.0442 29.39 87.0442 29.558C87.0442 29.726 86.9602 29.894 86.7922 30.062C86.6242 30.23 86.4982 30.748 86.4142 31.616C86.3582 32.456 86.1482 33.492 85.7842 34.724C85.4202 35.928 84.7902 37.02 83.8942 38C83.8942 38.056 83.9502 38.084 84.0622 38.084C84.2582 38.084 84.9722 37.748 86.2042 37.076L86.7922 36.782C87.8562 36.194 88.9902 35.48 90.1942 34.64L90.2782 35.27C85.9102 38.098 82.5642 39.512 80.2402 39.512C79.3162 39.512 78.6442 39.316 78.2242 38.924C77.7762 38.532 77.5522 38.098 77.5522 37.622C77.5522 37.146 77.6642 36.768 77.8882 36.488C78.1122 36.18 78.3922 36.026 78.7282 36.026C79.1482 36.026 79.3582 36.25 79.3582 36.698C79.3582 36.978 79.1342 37.23 78.6862 37.454C78.5462 37.538 78.4762 37.678 78.4762 37.874C78.4762 38.07 78.6442 38.294 78.9802 38.546C79.2882 38.826 79.6242 38.966 79.9882 38.966C81.2202 38.966 82.2702 38.196 83.1382 36.656C84.0342 35.088 84.6082 33.534 84.8602 31.994V31.868C82.1442 33.716 80.3102 34.92 79.3582 35.48L79.2322 34.892C83.7962 31.952 86.1902 30.174 86.4142 29.558ZM115.644 14.942C115.644 14.746 115.504 14.648 115.224 14.648C114.104 14.648 111.332 16.65 106.908 20.654C102.512 24.658 98.5643 28.536 95.0643 32.288C99.0963 29.684 103.534 26.366 108.378 22.334C113.222 18.302 115.644 15.838 115.644 14.942ZM97.5843 37.748C97.5843 38.112 97.7663 38.294 98.1303 38.294C98.5223 38.294 99.0963 38.126 99.8523 37.79C100.608 37.454 101.28 37.118 101.868 36.782C102.456 36.418 103.156 35.984 103.968 35.48C104.808 34.948 105.256 34.668 105.312 34.64L105.396 35.27C101.616 37.79 98.9703 39.05 97.4583 39.05C96.7303 39.05 96.3663 38.686 96.3663 37.958C96.3663 37.23 96.8143 36.432 97.7103 35.564C98.6343 34.668 99.5443 33.87 100.44 33.17C101.364 32.47 101.826 31.966 101.826 31.658C101.826 31.546 101.728 31.49 101.532 31.49C100.888 31.49 99.1383 32.302 96.2823 33.926C93.4263 35.522 91.5643 36.698 90.6963 37.454L89.1843 38.714C89.0723 38.826 88.7923 38.882 88.3443 38.882C87.8963 38.882 87.6723 38.798 87.6723 38.63C87.6723 38.546 87.7283 38.434 87.8403 38.294C90.7803 34.99 94.0703 31.532 97.7103 27.92C101.35 24.308 104.906 21.088 108.378 18.26C111.878 15.404 114.258 13.976 115.518 13.976C116.19 13.976 116.526 14.186 116.526 14.606C116.526 15.502 115.112 17.238 112.284 19.814C109.484 22.362 106.334 24.924 102.834 27.5C99.3343 30.076 96.3243 32.12 93.8043 33.632C92.8243 34.752 92.2643 35.466 92.1243 35.774C92.2363 35.774 92.3203 35.76 92.3763 35.732C94.1683 34.472 96.0303 33.352 97.9623 32.372C99.8943 31.392 101.112 30.902 101.616 30.902C102.12 30.902 102.456 31 102.624 31.196C102.82 31.392 102.918 31.602 102.918 31.826C102.918 32.498 102.47 33.254 101.574 34.094C100.706 34.934 99.8243 35.69 98.9283 36.362C98.0323 37.034 97.5843 37.496 97.5843 37.748ZM158.799 20.276C158.491 20.612 158.001 21.116 157.329 21.788C158.449 21.788 159.709 21.662 161.109 21.41C160.465 20.906 159.695 20.528 158.799 20.276ZM155.691 19.856C154.011 19.856 153.171 20.094 153.171 20.57C153.171 21.046 153.857 21.41 155.229 21.662C156.013 20.822 156.559 20.234 156.867 19.898C156.615 19.87 156.223 19.856 155.691 19.856ZM161.655 31.322L160.395 31.28C157.959 31.28 155.537 32.008 153.129 33.464C150.749 34.92 149.559 36.194 149.559 37.286C149.559 38.042 150.273 38.42 151.701 38.42C153.689 38.42 155.579 37.748 157.371 36.404C159.191 35.032 160.619 33.338 161.655 31.322ZM125.493 28.844C127.789 28.424 129.973 28.214 132.045 28.214C134.145 28.214 136.063 28.396 137.799 28.76C138.387 27.64 138.681 26.66 138.681 25.82C138.681 24.056 137.519 23.174 135.195 23.174C133.207 23.174 131.345 23.72 129.609 24.812C127.901 25.876 126.529 27.22 125.493 28.844ZM127.509 38.378C128.545 38.77 129.861 38.966 131.457 38.966C133.081 38.966 135.195 38.364 137.799 37.16C140.459 35.928 142.587 34.514 144.183 32.918C142.923 31.462 141.117 30.37 138.765 29.642C137.785 31.406 136.301 33.086 134.313 34.682C132.325 36.278 130.057 37.51 127.509 38.378ZM115.203 36.278C115.203 37.118 115.651 37.79 116.547 38.294C117.471 38.826 118.801 39.092 120.537 39.092C122.273 39.092 124.009 38.812 125.745 38.252C124.121 37.244 123.309 35.718 123.309 33.674C123.309 32.302 123.687 30.916 124.443 29.516C121.643 30.216 119.403 31.224 117.723 32.54C116.043 33.828 115.203 35.074 115.203 36.278ZM161.949 21.2C164.833 20.472 167.185 19.226 169.005 17.462C170.825 15.67 171.735 13.822 171.735 11.918C171.735 10.882 171.413 9.916 170.769 9.02C168.417 10.672 166.037 12.73 163.629 15.194C163.097 15.726 161.613 17.28 159.177 19.856C160.241 20.136 161.165 20.584 161.949 21.2ZM137.505 29.264C135.685 28.844 133.725 28.634 131.625 28.634C129.553 28.634 127.397 28.872 125.157 29.348C124.345 30.748 123.939 32.148 123.939 33.548C123.939 35.564 124.821 37.048 126.585 38C128.937 37.132 131.093 35.886 133.053 34.262C135.013 32.638 136.497 30.972 137.505 29.264ZM145.737 10.49C144.421 11.722 143.399 12.996 142.671 14.312C141.943 15.6 141.579 16.748 141.579 17.756C141.579 18.764 141.845 19.548 142.377 20.108C142.937 20.668 143.721 20.948 144.729 20.948C146.857 20.948 148.985 20.192 151.113 18.68C153.241 17.168 154.963 15.334 156.279 13.178C157.595 10.994 158.253 8.936 158.253 7.004C158.253 6.472 158.197 5.996 158.085 5.576C155.537 5.772 153.171 6.332 150.987 7.256C148.831 8.152 147.081 9.23 145.737 10.49ZM160.731 30.734L161.949 30.776C162.733 29.124 163.125 27.486 163.125 25.862C163.125 24.238 162.621 22.908 161.613 21.872C160.017 22.152 158.435 22.292 156.867 22.292C152.891 26.436 150.441 29.04 149.517 30.104C148.677 30.944 147.459 31.98 145.863 33.212C146.983 34.584 147.543 36.026 147.543 37.538C147.543 39.694 146.395 41.654 144.099 43.418C141.831 45.21 138.471 46.442 134.019 47.114V46.652C137.911 46.036 140.893 44.86 142.965 43.124C145.037 41.416 146.073 39.512 146.073 37.412C146.073 36.18 145.695 34.99 144.939 33.842C139.535 37.622 134.873 39.512 130.953 39.512C129.161 39.512 127.677 39.232 126.501 38.672C124.457 39.26 122.441 39.554 120.453 39.554C118.465 39.554 116.939 39.232 115.875 38.588C114.811 37.972 114.279 37.174 114.279 36.194C114.279 34.85 115.203 33.492 117.051 32.12C118.899 30.72 121.461 29.67 124.737 28.97C125.829 27.15 127.341 25.638 129.273 24.434C131.233 23.202 133.375 22.586 135.699 22.586C137.127 22.586 138.191 22.894 138.891 23.51C139.591 24.098 139.941 24.896 139.941 25.904C139.941 26.912 139.647 27.976 139.059 29.096C141.439 29.796 143.385 30.832 144.897 32.204C146.269 30.86 149.531 27.514 154.683 22.166C153.171 21.914 152.415 21.452 152.415 20.78C152.415 20.416 152.737 20.108 153.381 19.856C154.025 19.576 154.711 19.436 155.439 19.436C156.167 19.436 156.783 19.464 157.287 19.52L158.757 17.966C162.565 13.822 166.359 10.602 170.139 8.306C168.179 6.43 164.847 5.492 160.143 5.492C159.975 5.492 159.807 5.506 159.639 5.534C159.471 5.534 159.345 5.534 159.261 5.534C159.401 6.094 159.471 6.64 159.471 7.172C159.471 9.244 158.785 11.386 157.413 13.598C156.069 15.782 154.193 17.644 151.785 19.184C149.377 20.724 146.857 21.494 144.225 21.494C142.937 21.494 141.943 21.172 141.243 20.528C140.571 19.884 140.235 19.002 140.235 17.882C140.235 16.762 140.627 15.53 141.411 14.186C142.223 12.842 143.329 11.54 144.729 10.28C146.157 8.992 148.033 7.886 150.357 6.962C152.709 6.01 155.257 5.422 158.001 5.198C157.189 2.482 154.655 1.124 150.399 1.124C148.999 1.124 147.501 1.362 145.905 1.838C144.309 2.286 142.881 2.846 141.621 3.518C139.073 4.89 137.085 6.136 135.657 7.256L134.775 7.928L134.355 7.55C135.027 6.962 136.049 6.206 137.421 5.282C138.821 4.358 140.137 3.588 141.369 2.972C142.601 2.328 144.071 1.754 145.779 1.25C147.515 0.745997 149.167 0.493997 150.735 0.493997C155.411 0.493997 158.225 2.034 159.177 5.114C159.653 5.086 160.087 5.072 160.479 5.072C165.015 5.072 168.445 6.024 170.769 7.928C174.241 5.912 177.419 4.904 180.303 4.904C182.487 4.904 184.167 5.338 185.343 6.206C186.519 7.046 187.107 8.166 187.107 9.566C187.107 10.966 186.323 12.352 184.755 13.724C183.215 15.096 181.073 16.02 178.329 16.496L177.909 16.16C180.457 15.684 182.417 14.83 183.789 13.598C185.189 12.366 185.889 11.106 185.889 9.818C185.889 8.53 185.357 7.48 184.293 6.668C183.257 5.856 181.787 5.45 179.883 5.45C177.391 5.45 174.577 6.486 171.441 8.558C172.533 9.734 173.079 11.064 173.079 12.548C173.079 14.48 172.141 16.314 170.265 18.05C168.417 19.758 165.827 20.976 162.495 21.704C163.867 23.076 164.553 24.826 164.553 26.954C164.553 28.27 164.273 29.6 163.713 30.944C165.841 31.28 167.437 31.924 168.501 32.876C169.593 33.828 170.139 34.962 170.139 36.278C170.139 38.21 169.061 40.058 166.905 41.822C164.777 43.614 161.949 44.776 158.421 45.308L158.253 44.804C161.277 44.524 163.825 43.502 165.897 41.738C167.969 40.002 169.005 38.182 169.005 36.278C169.005 35.13 168.543 34.136 167.619 33.296C166.723 32.428 165.351 31.84 163.503 31.532C162.523 33.688 160.955 35.466 158.799 36.866C156.671 38.266 154.151 38.966 151.239 38.966C149.783 38.966 149.055 38.476 149.055 37.496C149.055 36.152 150.231 34.696 152.583 33.128C154.935 31.532 157.651 30.734 160.731 30.734ZM175.318 38.336C177.334 38.336 179.294 37.328 181.198 35.312V35.27C181.198 33.926 181.842 32.666 183.13 31.49C183.046 31.182 182.808 31.028 182.416 31.028C180.344 31.028 178.51 31.812 176.914 33.38C175.318 34.92 174.52 36.278 174.52 37.454C174.52 38.042 174.786 38.336 175.318 38.336ZM181.828 30.398C183.312 30.398 184.054 30.888 184.054 31.868C184.054 32.708 183.536 33.716 182.5 34.892V35.228C182.5 36.152 182.906 36.614 183.718 36.614C184.222 36.614 184.782 36.404 185.398 35.984L187.456 34.64L187.54 35.27L185.608 36.488C184.712 37.076 183.83 37.37 182.962 37.37C182.122 37.37 181.562 36.936 181.282 36.068C179.042 38.056 176.914 39.05 174.898 39.05C173.694 39.05 173.092 38.476 173.092 37.328C173.092 35.872 173.946 34.36 175.654 32.792C177.362 31.196 179.42 30.398 181.828 30.398ZM189.744 38.336C191.76 38.336 193.72 37.328 195.624 35.312V35.27C195.624 33.926 196.268 32.666 197.556 31.49C197.472 31.182 197.234 31.028 196.842 31.028C194.77 31.028 192.936 31.812 191.34 33.38C189.744 34.92 188.946 36.278 188.946 37.454C188.946 38.042 189.212 38.336 189.744 38.336ZM196.254 30.398C197.738 30.398 198.48 30.888 198.48 31.868C198.48 32.708 197.962 33.716 196.926 34.892V35.228C196.926 36.152 197.332 36.614 198.144 36.614C198.648 36.614 199.208 36.404 199.824 35.984L201.882 34.64L201.966 35.27L200.034 36.488C199.138 37.076 198.256 37.37 197.388 37.37C196.548 37.37 195.988 36.936 195.708 36.068C193.468 38.056 191.34 39.05 189.324 39.05C188.12 39.05 187.518 38.476 187.518 37.328C187.518 35.872 188.372 34.36 190.08 32.792C191.788 31.196 193.846 30.398 196.254 30.398ZM208.832 32.036L210.806 31.784C211.142 31.784 211.408 31.896 211.604 32.12C211.8 32.344 211.898 32.61 211.898 32.918C211.898 33.534 211.464 34.206 210.596 34.934C209.728 35.662 208.86 36.348 207.992 36.992C207.152 37.636 206.732 38.154 206.732 38.546C206.732 38.77 206.914 38.882 207.278 38.882C208.482 38.882 210.316 38.182 212.78 36.782C213.844 36.194 214.978 35.48 216.182 34.64L216.266 35.27C215.314 35.886 214.25 36.516 213.074 37.16C212.402 37.58 211.422 38.056 210.134 38.588C208.846 39.148 207.782 39.428 206.942 39.428C206.102 39.428 205.682 39.05 205.682 38.294C205.682 37.426 206.13 36.614 207.026 35.858C207.922 35.074 208.804 34.43 209.672 33.926C210.568 33.394 211.016 32.988 211.016 32.708C211.016 32.624 210.918 32.582 210.722 32.582L208.37 32.792C207.922 32.792 207.516 32.75 207.152 32.666C205.808 33.618 204.394 34.556 202.91 35.48L202.784 34.892L206.774 32.12C206.802 31.588 207.138 31.056 207.782 30.524C208.426 29.992 208.972 29.726 209.42 29.726C209.868 29.726 210.092 29.852 210.092 30.104C210.092 30.328 209.826 30.622 209.294 30.986C208.762 31.35 208.496 31.616 208.496 31.784C208.496 31.952 208.608 32.036 208.832 32.036ZM217.634 38.084C218.698 38.084 220.112 37.552 221.876 36.488C223.668 35.396 225.152 34.346 226.328 33.338C227.532 32.33 228.134 31.742 228.134 31.574C228.134 31.406 227.924 31.266 227.504 31.154C227.112 31.042 226.566 30.986 225.866 30.986C225.166 30.986 224.242 31.266 223.094 31.826C221.946 32.358 220.952 33.002 220.112 33.758C219.272 34.514 218.572 35.256 218.012 35.984C217.452 36.712 217.172 37.244 217.172 37.58C217.172 37.916 217.326 38.084 217.634 38.084ZM228.89 31.028C229.45 30.58 229.758 30.356 229.814 30.356C230.57 30.44 230.962 30.51 230.99 30.566C231.018 30.594 231.032 30.636 231.032 30.692C231.032 30.748 230.92 30.93 230.696 31.238C230.472 31.518 229.814 32.204 228.722 33.296C226.006 35.956 224.648 37.566 224.648 38.126C224.648 38.35 224.746 38.462 224.942 38.462C226.286 38.462 228.806 37.188 232.502 34.64L232.586 35.27C228.862 37.706 226.23 38.924 224.69 38.924C223.934 38.924 223.556 38.574 223.556 37.874C223.556 37.146 223.99 36.208 224.858 35.06C221.554 37.496 218.978 38.728 217.13 38.756C216.458 38.756 216.122 38.35 216.122 37.538C216.122 36.082 217.046 34.528 218.894 32.876C220.77 31.224 223.234 30.398 226.286 30.398C227.294 30.398 228.162 30.608 228.89 31.028Z" fill="#3CFF00"/>
</svg>
